<mxfile host="app.diagrams.net" modified="2023-05-24T04:14:41.026Z" agent="Mozilla/5.0 (Windows NT 10.0; Win64; x64) AppleWebKit/537.36 (KHTML, like Gecko) Chrome/113.0.0.0 Safari/537.36 Edg/113.0.1774.50" etag="33FMiWFhgsE5B3S9GiBq" version="21.3.3" type="github">
  <diagram id="C5RBs43oDa-KdzZeNtuy" name="Page-1">
    <mxGraphModel dx="830" dy="507" grid="0" gridSize="10" guides="1" tooltips="1" connect="1" arrows="1" fold="1" page="1" pageScale="1" pageWidth="827" pageHeight="1169" background="#ffffff" math="0" shadow="0">
      <root>
        <mxCell id="WIyWlLk6GJQsqaUBKTNV-0" />
        <mxCell id="WIyWlLk6GJQsqaUBKTNV-1" parent="WIyWlLk6GJQsqaUBKTNV-0" />
        <mxCell id="rvLGCXo1_rJOp-9qlf7R-53" value="Feature Extraction and Construction" style="rounded=0;whiteSpace=wrap;html=1;" vertex="1" parent="WIyWlLk6GJQsqaUBKTNV-1">
          <mxGeometry x="620" y="440" width="120" height="60" as="geometry" />
        </mxCell>
        <mxCell id="rvLGCXo1_rJOp-9qlf7R-54" value="Training samples" style="text;html=1;align=center;verticalAlign=middle;resizable=0;points=[];autosize=1;strokeColor=none;fillColor=none;" vertex="1" parent="WIyWlLk6GJQsqaUBKTNV-1">
          <mxGeometry x="425" y="340" width="110" height="30" as="geometry" />
        </mxCell>
        <mxCell id="rvLGCXo1_rJOp-9qlf7R-64" value="" style="endArrow=classic;html=1;rounded=0;exitX=1;exitY=0.553;exitDx=0;exitDy=0;exitPerimeter=0;entryX=0;entryY=0.5;entryDx=0;entryDy=0;" edge="1" parent="WIyWlLk6GJQsqaUBKTNV-1" source="rvLGCXo1_rJOp-9qlf7R-46" target="rvLGCXo1_rJOp-9qlf7R-53">
          <mxGeometry width="50" height="50" relative="1" as="geometry">
            <mxPoint x="580" y="495" as="sourcePoint" />
            <mxPoint x="630" y="445" as="targetPoint" />
          </mxGeometry>
        </mxCell>
        <mxCell id="rvLGCXo1_rJOp-9qlf7R-65" value="" style="group" vertex="1" connectable="0" parent="WIyWlLk6GJQsqaUBKTNV-1">
          <mxGeometry x="390" y="370" width="280" height="280" as="geometry" />
        </mxCell>
        <mxCell id="rvLGCXo1_rJOp-9qlf7R-46" value="" style="whiteSpace=wrap;html=1;aspect=fixed;" vertex="1" parent="rvLGCXo1_rJOp-9qlf7R-65">
          <mxGeometry width="180" height="180" as="geometry" />
        </mxCell>
        <mxCell id="rvLGCXo1_rJOp-9qlf7R-56" value="Pseudo Labeled Samples" style="shape=cylinder3;whiteSpace=wrap;html=1;boundedLbl=1;backgroundOutline=1;size=15;" vertex="1" parent="rvLGCXo1_rJOp-9qlf7R-65">
          <mxGeometry x="35" y="20" width="110" height="70" as="geometry" />
        </mxCell>
        <mxCell id="rvLGCXo1_rJOp-9qlf7R-57" value="Labeled Samples" style="shape=cylinder3;whiteSpace=wrap;html=1;boundedLbl=1;backgroundOutline=1;size=15;" vertex="1" parent="rvLGCXo1_rJOp-9qlf7R-65">
          <mxGeometry x="35" y="100" width="110" height="70" as="geometry" />
        </mxCell>
        <mxCell id="rvLGCXo1_rJOp-9qlf7R-63" value="Unlabeled Samples" style="shape=cylinder3;whiteSpace=wrap;html=1;boundedLbl=1;backgroundOutline=1;size=15;movable=1;resizable=1;rotatable=1;deletable=1;editable=1;locked=0;connectable=1;" vertex="1" parent="rvLGCXo1_rJOp-9qlf7R-65">
          <mxGeometry x="25" y="210" width="130" height="85" as="geometry" />
        </mxCell>
        <mxCell id="rvLGCXo1_rJOp-9qlf7R-78" value="" style="endArrow=classic;html=1;rounded=0;exitX=0.5;exitY=1;exitDx=0;exitDy=0;" edge="1" parent="WIyWlLk6GJQsqaUBKTNV-1" source="rvLGCXo1_rJOp-9qlf7R-53" target="rvLGCXo1_rJOp-9qlf7R-80">
          <mxGeometry width="50" height="50" relative="1" as="geometry">
            <mxPoint x="630" y="600" as="sourcePoint" />
            <mxPoint x="680" y="550" as="targetPoint" />
          </mxGeometry>
        </mxCell>
        <mxCell id="rvLGCXo1_rJOp-9qlf7R-82" style="edgeStyle=orthogonalEdgeStyle;rounded=0;orthogonalLoop=1;jettySize=auto;html=1;entryX=1;entryY=0.5;entryDx=0;entryDy=0;" edge="1" parent="WIyWlLk6GJQsqaUBKTNV-1" source="rvLGCXo1_rJOp-9qlf7R-80" target="rvLGCXo1_rJOp-9qlf7R-83">
          <mxGeometry relative="1" as="geometry">
            <mxPoint x="550" y="710" as="targetPoint" />
          </mxGeometry>
        </mxCell>
        <mxCell id="rvLGCXo1_rJOp-9qlf7R-80" value="Classifiers Training" style="rounded=0;whiteSpace=wrap;html=1;" vertex="1" parent="WIyWlLk6GJQsqaUBKTNV-1">
          <mxGeometry x="620" y="710" width="120" height="60" as="geometry" />
        </mxCell>
        <mxCell id="rvLGCXo1_rJOp-9qlf7R-90" style="edgeStyle=orthogonalEdgeStyle;rounded=0;orthogonalLoop=1;jettySize=auto;html=1;exitX=0;exitY=0.5;exitDx=0;exitDy=0;" edge="1" parent="WIyWlLk6GJQsqaUBKTNV-1" source="rvLGCXo1_rJOp-9qlf7R-83">
          <mxGeometry relative="1" as="geometry">
            <mxPoint x="330" y="740" as="targetPoint" />
          </mxGeometry>
        </mxCell>
        <mxCell id="rvLGCXo1_rJOp-9qlf7R-83" value="Trained Classifiers" style="rounded=1;whiteSpace=wrap;html=1;" vertex="1" parent="WIyWlLk6GJQsqaUBKTNV-1">
          <mxGeometry x="420" y="710" width="120" height="60" as="geometry" />
        </mxCell>
        <mxCell id="rvLGCXo1_rJOp-9qlf7R-89" style="edgeStyle=orthogonalEdgeStyle;rounded=0;orthogonalLoop=1;jettySize=auto;html=1;entryX=0.5;entryY=0;entryDx=0;entryDy=0;" edge="1" parent="WIyWlLk6GJQsqaUBKTNV-1" source="rvLGCXo1_rJOp-9qlf7R-63" target="rvLGCXo1_rJOp-9qlf7R-83">
          <mxGeometry relative="1" as="geometry" />
        </mxCell>
        <mxCell id="rvLGCXo1_rJOp-9qlf7R-97" value="Predicted Labeled &lt;br&gt;and Probability" style="text;html=1;align=center;verticalAlign=middle;resizable=0;points=[];autosize=1;strokeColor=none;fillColor=none;" vertex="1" parent="WIyWlLk6GJQsqaUBKTNV-1">
          <mxGeometry x="240" y="760" width="120" height="40" as="geometry" />
        </mxCell>
        <mxCell id="rvLGCXo1_rJOp-9qlf7R-98" value="" style="group" vertex="1" connectable="0" parent="WIyWlLk6GJQsqaUBKTNV-1">
          <mxGeometry x="290" y="725" width="30" height="30" as="geometry" />
        </mxCell>
        <mxCell id="rvLGCXo1_rJOp-9qlf7R-92" value="" style="whiteSpace=wrap;html=1;aspect=fixed;fillColor=#647687;fontColor=#ffffff;strokeColor=#314354;" vertex="1" parent="rvLGCXo1_rJOp-9qlf7R-98">
          <mxGeometry width="10" height="10" as="geometry" />
        </mxCell>
        <mxCell id="rvLGCXo1_rJOp-9qlf7R-93" value="" style="whiteSpace=wrap;html=1;aspect=fixed;fillColor=#e51400;fontColor=#ffffff;strokeColor=#B20000;" vertex="1" parent="rvLGCXo1_rJOp-9qlf7R-98">
          <mxGeometry x="20" width="10" height="10" as="geometry" />
        </mxCell>
        <mxCell id="rvLGCXo1_rJOp-9qlf7R-94" value="" style="whiteSpace=wrap;html=1;aspect=fixed;fillColor=#e51400;fontColor=#ffffff;strokeColor=#B20000;" vertex="1" parent="rvLGCXo1_rJOp-9qlf7R-98">
          <mxGeometry y="20" width="10" height="10" as="geometry" />
        </mxCell>
        <mxCell id="rvLGCXo1_rJOp-9qlf7R-95" value="" style="whiteSpace=wrap;html=1;aspect=fixed;fillColor=#647687;fontColor=#ffffff;strokeColor=#314354;" vertex="1" parent="rvLGCXo1_rJOp-9qlf7R-98">
          <mxGeometry x="20" y="20" width="10" height="10" as="geometry" />
        </mxCell>
        <mxCell id="rvLGCXo1_rJOp-9qlf7R-100" value="" style="endArrow=classic;html=1;rounded=0;" edge="1" parent="WIyWlLk6GJQsqaUBKTNV-1">
          <mxGeometry width="50" height="50" relative="1" as="geometry">
            <mxPoint x="300" y="710" as="sourcePoint" />
            <mxPoint x="300" y="650" as="targetPoint" />
          </mxGeometry>
        </mxCell>
        <mxCell id="rvLGCXo1_rJOp-9qlf7R-101" value="Pseudo Labeled Sample Selection" style="rounded=0;whiteSpace=wrap;html=1;strokeColor=#FF9408;" vertex="1" parent="WIyWlLk6GJQsqaUBKTNV-1">
          <mxGeometry x="240" y="585" width="120" height="60" as="geometry" />
        </mxCell>
        <mxCell id="rvLGCXo1_rJOp-9qlf7R-103" value="" style="endArrow=none;html=1;rounded=0;" edge="1" parent="WIyWlLk6GJQsqaUBKTNV-1">
          <mxGeometry width="50" height="50" relative="1" as="geometry">
            <mxPoint x="300" y="585" as="sourcePoint" />
            <mxPoint x="300" y="430" as="targetPoint" />
          </mxGeometry>
        </mxCell>
        <mxCell id="rvLGCXo1_rJOp-9qlf7R-104" value="" style="endArrow=classic;html=1;rounded=0;" edge="1" parent="WIyWlLk6GJQsqaUBKTNV-1">
          <mxGeometry width="50" height="50" relative="1" as="geometry">
            <mxPoint x="300" y="430" as="sourcePoint" />
            <mxPoint x="420" y="430" as="targetPoint" />
          </mxGeometry>
        </mxCell>
      </root>
    </mxGraphModel>
  </diagram>
</mxfile>
